<?xml version="1.0" standalone="no"?><!DOCTYPE svg PUBLIC "-//W3C//DTD SVG 1.1//EN" "http://www.w3.org/Graphics/SVG/1.1/DTD/svg11.dtd"><svg t="1599973442111" class="icon" viewBox="0 0 1024 1024" version="1.1" xmlns="http://www.w3.org/2000/svg" p-id="3048" xmlns:xlink="http://www.w3.org/1999/xlink" width="200" height="200"><defs><style type="text/css"></style></defs><path d="M432 201.6c-3.2 35.2 48 51.2 48 48v-86.4c-35.2 3.2-48 22.4-48 38.4z m80 96v92.8s6.4 3.2 32-12.8c16-9.6 22.4-32 12.8-51.2-6.4-12.8-19.2-25.6-44.8-28.8z" fill="#26B4FF" p-id="3049"></path><path d="M512 0C230.4 0 0 230.4 0 512s230.4 512 512 512c163.2 0 307.2-76.8 400-192-19.2 0-38.4 3.2-57.6 9.6-96 28.8-252.8 64-275.2 60.8-22.4-3.2-70.4 22.4-179.2-60.8S201.6 704 172.8 691.2c-28.8-12.8-22.4-76.8 64-57.6s172.8 96 249.6 115.2c41.6 9.6 214.4-22.4 252.8-64 38.4-44.8-19.2-67.2-57.6-57.6-38.4 9.6-179.2 32-214.4-22.4-19.2-25.6 0-48 25.6-54.4 16-6.4 35.2-3.2 48-3.2 38.4 0 51.2-3.2 86.4-16 35.2-9.6 124.8-60.8 208-22.4 51.2 22.4 92.8 41.6 140.8 64 16 6.4 28.8 12.8 41.6 19.2 3.2-25.6 6.4-51.2 6.4-80C1024 230.4 793.6 0 512 0z m83.2 371.2c-12.8 38.4-51.2 54.4-83.2 54.4v51.2c0 3.2 0 3.2-3.2 3.2H480s-3.2 0-3.2-3.2v-51.2s-41.6 0-64-28.8c-16-19.2-25.6-44.8-25.6-70.4 0-3.2 0-6.4 3.2-6.4h32c3.2 0 3.2 3.2 3.2 6.4 3.2 32 19.2 60.8 51.2 64v-96c0-3.2 0-3.2-3.2-6.4s-12.8-3.2-16-6.4c-6.4-3.2-12.8-3.2-16-6.4-35.2-16-51.2-48-44.8-86.4 9.6-38.4 51.2-57.6 83.2-57.6v-28.8c0-3.2 0-6.4 3.2-6.4H512v32c19.2 0 44.8 16 54.4 32 12.8 19.2 19.2 38.4 22.4 54.4 0 3.2 0 6.4-3.2 6.4h-32s-3.2-54.4-41.6-60.8v96s12.8 3.2 38.4 16c35.2 25.6 54.4 57.6 44.8 99.2z" fill="#26B4FF" p-id="3050"></path></svg>